<svg height="512" viewBox="0 0 512 512" width="512" xmlns="http://www.w3.org/2000/svg" xmlns:xlink="http://www.w3.org/1999/xlink"><linearGradient id="a" gradientUnits="userSpaceOnUse" x1="-4.029" x2="510.404" y1="476.029" y2="-38.404" data-name="New Gradient Swatch 1"><stop offset="0" stop-color="#003f8a"/><stop offset=".518" stop-color="#00d7df"/><stop offset="1" stop-color="#006df0"/></linearGradient><linearGradient id="b" x1="97.971" x2="612.404" xlink:href="#a" y1="578.029" y2="63.596"/><linearGradient id="c" x1="-50.029" x2="464.404" xlink:href="#a" y1="430.029" y2="-84.404"/><g><path d="m420 160h-60v-124a28.031 28.031 0 0 0 -28-28h-232a28.031 28.031 0 0 0 -28 28v440a28.031 28.031 0 0 0 28 28h232a28.031 28.031 0 0 0 28-28v-124h60a20.02 20.02 0 0 0 20-20v-152a20.02 20.02 0 0 0 -20-20zm-166.25-136-4 16h-67.5l-4-16zm90.25 452a12.01 12.01 0 0 1 -12 12h-232a12.01 12.01 0 0 1 -12-12v-236h32a8 8 0 0 0 0-16h-32v-188a12.01 12.01 0 0 1 12-12h61.75l6.49 25.94a8 8 0 0 0 7.76 6.06h80a8 8 0 0 0 7.76-6.06l6.49-25.94h61.75a12.01 12.01 0 0 1 12 12v124h-156a20.02 20.02 0 0 0 -20 20v68h-56a8 8 0 0 0 0 16h56v16h-32a8 8 0 0 0 0 16h32v36a20.02 20.02 0 0 0 20 20h156zm80-144a4 4 0 0 1 -4 4h-232a4 4 0 0 1 -4-4v-119.06l116.42 58.22a8.049 8.049 0 0 0 7.16 0l116.42-58.22zm0-136.94-120 60-120-60v-15.06a4 4 0 0 1 4-4h232a4 4 0 0 1 4 4z" fill="url(#a)"/><path d="m176 448v24a8 8 0 0 0 8 8h64a8 8 0 0 0 8-8v-24a8 8 0 0 0 -8-8h-64a8 8 0 0 0 -8 8zm16 8h48v8h-48z" fill="url(#b)"/><path d="m144 240h8a8 8 0 0 0 0-16h-8a8 8 0 0 0 0 16z" fill="url(#c)"/></g></svg>